<?xml version="1.0" encoding="UTF-8"?><svg id="a" xmlns="http://www.w3.org/2000/svg" viewBox="0 0 1748.48 961.79"><defs><style>.b,.c{fill:#fff;}.c{fill-rule:evenodd;}</style></defs><g><path class="b" d="M1119.46,379.52v.09c-.27,2.04-.4,4.17-.4,6.34,0,.41,0,.82,.01,1.24,.03-.13,.07-.27,.11-.4,3.62-13.68,12.77-25.58,25.1-32.64,3.14-1.81,6.46-3.29,9.88-4.4-.02-.5-.02-1.01-.02-1.52,0-4.89,.68-9.73,2.03-14.37,2.23-7.66,6.3-14.83,11.78-20.71,2.85-3.05,6.05-5.75,9.52-8.01l.12-.08c1.01-.66,2.04-1.27,3.09-1.86-3.57,1.01-7.01,2.44-10.25,4.25-12.08,6.73-20.65,18.31-23.52,31.77l-.12,.57-.51,.28c-14.75,8.07-24.77,22.81-26.81,39.45Z"/><path class="b" d="M1272.99,210.89c-38.55,2.19-72.05,24.02-90.29,55.62-27.1,3.36-49.21,21.53-57.67,46.68l-.22,.62c11.67-15.77,29.37-26.81,49.69-29.71,3.49-.5,7.06-.76,10.69-.76,5.18,0,15.74,1.63,15.74,1.63,4.55-38.92,33.95-67.82,72.06-74.09h0Z"/><path class="b" d="M1430.69,452.87h0s0-.03-.01-.03c-1.14-6.49-2.45-12.93-3.93-19.29-1.47-6.34-3.12-12.6-4.94-18.79-2.81-9.64-6.04-19.11-9.64-28.4-.36-.95-.73-1.88-1.1-2.81-.55-1.39-1.11-2.78-1.69-4.16-4.08-9.89-8.58-19.54-13.5-28.96-.05-.1-.1-.19-.15-.29-6.76-12.9-14.29-25.34-22.53-37.25-6.45,.78-12.93,1.43-19.46,1.93-11.45,.88-23.01,1.33-34.67,1.33-15.64,0-31.08-.8-46.29-2.38-7.15-.74-14.24-1.65-21.28-2.72,4.92,9.7,8.16,20.38,9.43,31.66,1.44,12.82-.07,35.21-6.87,48.12,19.43-18.06,20.83-34.68,19.61-58.56-.11-2.07,1.54-3.81,3.61-3.81h78.17c6.31,0,12.15,3.29,15.46,8.67,35.74,58.04,45.88,135.84,41.07,179.58-2.33,21.25-13.82,46.95-30.08,53.57,1.35-12.91,2.05-26.01,2.05-39.27,0-47.58-8.93-93.07-25.2-134.89l.14-.05c-10.31,.92-20.68,1.65-31.08,2.24-.06,0-.12,.01-.18,.01-8.39,.47-16.81,.86-25.27,1.11-1.62,.06-3.24,.1-4.88,.15-9.17,.24-18.4,.37-27.63,.37-10.58,0-21.12-.17-31.6-.49-8.69-.27-17.35-.64-25.97-1.14,2.61,6.54,4.8,13.29,6.57,20.2,3.14,12.38,4.91,25.31,5.1,38.62,.01,.8,.01,1.6,.01,2.4,0,1.65-.03,3.31-.09,4.94-.04,1.69-.12,3.37-.22,5.06-.06,1.23-.15,2.44-.26,3.67-.5,6.17-1.34,12.24-2.5,18.19-1.79,9.2-4.34,18.13-7.59,26.71-4.3,11.41-9.85,22.21-16.44,32.27,19.85-10.82,50.33-67.02,40.88-133.53-.31-2.15,1.37-4.08,3.54-4.1l91.32-1.11c6.05-.07,11.79,2.84,15.16,7.86,18.1,27.01,24.74,87.04,20.72,135.98-.5-1.02-1.03-2.03-1.61-3.03-6.66-11.59-18.86-22.45-36.31-45.59-9.93-13.17-13.6-26.78-11.66-39.08,1.77-11.22,7.25-17.79,20.57-18,.43-.01,.84-.14,1.28-.19,1.28-2.38,2.18-4.38,3.07-6.97-6.87-2.5-14.05-4.34-21.46-5.49-2.18-.33-4.39-.6-6.62-.82h-.01c-.63,1.51-8.83,17.88-9.16,35.4-.31,16.73,5.65,27.33,13.28,39.22,8.76,13.66,17.54,20.05,25.61,35.68,3.45,6.69,7.99,18.35,7.99,25.78l-12.03,.04c-1.95-12.54-7.17-23.13-12.55-31.95-5.67-9.29-17.87-22.52-23.46-32.83-5.52-10.18-8.72-22.05-8.72-34.4,0-8.74,2.37-17.25,4.94-25.11,1.32-4.04,3.17-8.52,5.11-12.3-.64-.03-1.26-.03-1.9-.03-3.83,0-7.61,.19-11.34,.56-3.39,6.95-6.09,15.09-7.55,23.4-.8,4.45-1.24,8.95-1.24,13.36,0,15.25,3.82,28.68,11.1,40.87,6.67,11.17,15.06,20.94,19.39,31.65,2.9,7.13,4.91,14.72,5.88,22.62,.05,.38,.1,.77,.14,1.15,.06,.46,.13,.91,.18,1.37,.03,.2,.05,.41,.08,.63,.04,.33,.08,.66,.1,1.01h-14.14c-.04-8.42-1.21-20.9-8.48-34.98-8.34-16.14-24.82-38.58-21.06-70.95,1.51-13,2.89-16.82,7.87-29.12-4.89,.73-7.62,1.45-12.29,2.78-4.51,11.56-6.57,26.58-5.64,39.72,1.84,26.04,7.83,41.26,10.83,50.65,3.28,10.28,7.22,25.01,6,41.9h-22.87v-61.73l.03-30.43c-.03-.93-.05-26.55,4.06-37.66-5.98,2.02-9.48,3.74-14.97,6.68v123.09h-.06v.04h-33.51c-8.42-.08-14.23-.03-14.63-.01-.29,.01-.59,.03-.89,.05-.19,.01-.4,.03-.59,.04-.27,.03-.54,.05-.8,.09h-.03c-.13,.01-.27,.04-.4,.06-.37,.04-.73,.09-1.09,.15-.03,0-.05,0-.08,.01-.01-.01-.01,0-.03,0h-.03s-.03,.01-.03,.01c-.2,.04-.4,.08-.6,.12-.13,.01-.26,.04-.38,.06-.65,.13-1.29,.28-1.92,.46-.23,.06-.46,.13-.69,.19-.09,.03-.18,.05-.26,.08-.14,.05-.27,.09-.41,.14-.04,.01-.09,.03-.13,.04-.04,.01-.08,.03-.13,.04-.09,.04-.18,.06-.27,.1-.01,.01-.04,.01-.06,.01-.05,.03-.13,.05-.19,.06-.03,.01-.04,.01-.06,.03-.04,.01-.09,.03-.13,.05-.12,.04-.23,.08-.33,.12-.08,.03-.17,.06-.24,.1-.1,.03-.19,.06-.28,.1-.34,.14-.68,.28-1.02,.43-.42,.18-.83,.37-1.23,.57-.01,.01-.03,.01-.04,.01-.45,.23-.89,.46-1.32,.7,0,0-.01,0-.01,.01-.27,.14-.52,.29-.78,.46-.46,.27-.92,.56-1.37,.87-.66,.46-1.32,.93-1.94,1.44-.63,.5-1.23,1.03-1.81,1.6l-.06,.06c-5.79,5.49-9.4,13.26-9.4,21.87,0,5.01,1.35,9.63,3.37,13.86,2.7,5.63,6.46,11.73,11.48,17.92,14.08,17.41,37.94,35.72,75.11,47.64,2.24,.72,4.51,1.41,6.83,2.07,9.22,2.66,19.21,4.92,30.02,6.69v-.04c.01-.29,.03-.57,.04-.87,.2-4.06,2.66-23.88,20.47-35.24,22.77-14.53,48.98-27.57,55.76-50.43,1.52-5.14,1.99-10.56,2.81-15.89,16.06,.23,31.56,2.78,46.17,7.33,0,0,5.4-21.33,7.42-36.32h0s.04-.03,.06-.04c.06-.5,.13-.98,.18-1.48,.19-1.48,.36-2.98,.52-4.47,1.29-11.84,1.99-23.84,2.08-36,.03-.96,.03-1.93,.03-2.89,0-20.98-1.83-41.54-5.33-61.52Zm-168.94,133.97h.06v-.04h19.75c-3.86,12.1-10.76,22.83-19.81,31.3v-31.26Zm88,10.48c-.96,5.49-3.08,12.15-7.74,18.56-1.53,2.11-3.35,4.19-5.48,6.2-5.98,5.62-13.81,10.09-20.94,14.59h-.01c-3.41,2.16-6.66,4.32-9.45,6.62-1.03,.86-2.1,1.7-3.08,2.59-.49,.45-.96,.91-1.43,1.38-.46,.47-.92,.95-1.35,1.43-.01,.01-.03,.04-.04,.05-12.75,14.13-12.72,31.48-12.75,31.48h-.01c-5.98-1.01-11.82-2.43-17.46-4.15-.97-.31-1.94-.61-2.9-.93-24.46-8.09-45.08-22.29-57.63-37.17-6.76-8.04-11.16-16.26-12.56-23.85-.05-.28-.13-.56-.18-.86-.03-.09-.04-.18-.05-.26-.27-1.34-.28-2.72-.4-4.14-.18-2.21,.43-5.2,1.7-8.52,.13-.33,.28-.65,.45-.97,.11-.27,.26-.54,.41-.8,.06-.12,.12-.22,.18-.32,.17-.31,.34-.6,.52-.89,.15-.26,.32-.51,.51-.77,.01-.01,.04-.04,.04-.06,0,0,.03-.01,.03-.03,.1-.18,.23-.36,.37-.54,.03-.03,.05-.05,.06-.08,.01-.05,.05-.1,.12-.15l.03-.03c.19-.28,.4-.54,.61-.8,.22-.27,.45-.54,.69-.79,.08-.08,.15-.15,.22-.23,.01-.01,.03-.03,.03-.04,.14-.17,.31-.34,.47-.5,.24-.26,.49-.5,.73-.72t.03-.01s.04-.03,.06-.05c.06-.05,.13-.12,.19-.17,.04-.04,.08-.08,.12-.1,.03-.01,.04-.04,.06-.05,.03-.03,.06-.05,.09-.09,.06-.05,.13-.12,.19-.18,.03-.01,.05-.04,.08-.06l.38-.31c.11-.1,.24-.2,.38-.31,.22-.17,.45-.32,.66-.47,.23-.17,.45-.32,.68-.46,.23-.15,.46-.29,.68-.43,.24-.14,.49-.28,.73-.41,.59-.33,1.19-.63,1.8-.88,.33-.15,.66-.28,1-.41,.33-.13,.66-.24,1.01-.34,0,0,.01-.01,.03-.01,.27-.09,.54-.18,.82-.24,.15-.05,.31-.09,.46-.13,.01,0,.03-.01,.04-.01,.27-.08,.54-.13,.8-.19,.18-.04,.36-.08,.54-.1,.03-.01,.05-.01,.08-.01,.1-.03,.22-.03,.32-.05,.1-.03,.2-.04,.32-.05h.06c.08-.01,.17-.03,.26-.04,.14-.03,.27-.05,.41-.06,.4-.05,.79-.09,1.2-.12,.12-.01,.22-.01,.33-.03,.29-.01,.59-.03,.88-.03h32.74v47.75c4.11,8.09,14.52,22.85,14.52,22.85,0,0,0-18.08,15.85-33.52,5.07-4.93,10.21-9.71,14.74-15.32,3.74-4.64,7.55-11.14,10.08-21.77h14.4c-1.44,6.02-4.06,11.61-7.51,16.52-.34,.5-.69,.98-1.06,1.47h0c-.29,.42-.6,.82-.92,1.21-.11,.15-.24,.31-.37,.46-.45,.55-.91,1.09-1.38,1.61-.74,.83-1.51,1.64-2.31,2.41-.57,.57-1.18,1.12-1.79,1.66-1.16,1.02-19.56,16.06-24.02,23.28-4.18,6.73-7.09,14.31-8.46,22.42-.11,.72-.23,1.43-.32,2.16-.03,.14-.05,.28-.06,.42l-.54,4.61c1.39,1.57,2.84,3.12,4.3,4.62,1.24,1.26,2.49,2.52,3.78,3.73,0,0,1.75-13.34,8.56-23.48,2.17-3.24,4.38-6.44,6.99-9.35,.01-.01,.01-.03,.01-.03,3.1-3.46,6.57-6.6,10.32-9.35,.31-.43,17.87-12.19,23.96-20.15,5.9-7.72,9.41-17.59,10.69-24.23h10.27c-.04,2.18-.05,5.95-.87,10.51Z"/><path class="b" d="M1618.84,461.78v1.43c0,33.99-5.89,67.17-17.88,98.67-2.15,5.68-11.47,29.39-23.71,48.13-53.34,81.66-142.76,76.34-142.76,76.34,0,0,82.5-33.9,101.65-63.04-4.78,5.3-37.06,14.92-105.5,22.16-74.18,7.85-102.37,51.89-102.37,51.89,0,0,6.92-43.51,70.96-68.47,56.48-22.02,134.61-18.9,167.32-92.28,16.95-38.02-4.97-85.47-33.97-80.32-5.95,1.06,37.99-21.97,61.65,36.7,14.26-184.59-124.13-299.71-267.56-299.7-56.43,0-108.9,18.71-153.14,47.58,11.52-8.75,23.75-16.62,36.57-23.49,1.01-.55,2.03-1.09,3.05-1.6t.03-.01c38.26-19.92,81.74-31.17,127.86-31.17,153.13,0,277.87,124.08,277.82,277.17Z"/><path class="b" d="M1428.36,684.04c-17.04,52.45-100.53,68.68-153.9,45.07-60.43-26.73-108.92-35.34-155.39,1.36,12.29-16.83,45.8-39.89,69.3-43.07,56.57-7.65,75.35,20.94,128.41,29.75,44.91,7.46,94.53-11.58,111.57-33.11Z"/><path class="b" d="M1405.11,295.15c-35.07-20.19-56.4,10.83-88.19-1.22,1.48-19.82,.41-34.78-7.32-52.81,32.88,22.08,58.27-9.55,87.41,8.67-7.41,7.52,2.27,29.18,8.1,45.35Z"/></g><polygon class="c" points="273.92 583.47 1026.55 583.47 1026.55 576.9 275.93 576.9 273.92 583.47"/><path class="c" d="M306.97,561.15l-26.33,.53,5.07-18.93,21.4-1.19c97.05-5.03,57.87-58.9,44.94-72.8-13.65-14.69-39.66-43.55-37.02-90.54h65.88v14.03l-46.02-.13c-2.12,28.59,24.14,50.17,37.33,60.23,26.12,20.25,75.08,100.2-65.24,108.8Z"/><path class="c" d="M442.54,446.79v107.75h-23.06l-.05-150.63c-.26-9.13,1.96-11.38-13.65-11.38h-2.28v-14.29h38.93l.05,54.27,4.66,.13,5.57,.53,5.07,.93,4.66,1.32,4.18,1.85,3.72,2.12,3.36,2.52,2.95,2.91,2.53,3.05,2.17,3.44,1.81,3.71,1.5,3.97,1.14,4.1,.89,4.23,.62,4.5,.3,4.63,.16,4.63c-.36,19.99-2.28,37.19-6.05,58.77h7.54v13.9h-32.31c5.78-28.59,8.42-48.45,8.74-73.99l-.16-4.24-.36-3.97-.52-3.84-.78-3.57-1.03-3.18-1.24-3.04-1.44-2.65-1.76-2.25-2.01-1.99-2.33-1.59-2.63-1.32-3.01-.92-3.41-.4h-2.47Z"/><path class="c" d="M526.66,514.7l.05,.79,.21,1.72,.21,1.59,.25,1.59,.3,1.46,.37,1.59,.41,1.32,.93,2.78,.52,1.19,.57,1.19,1.24,2.25,.73,.93,.73,.93,.77,.93,.83,.79,.82,.66,.93,.66,.99,.66,.98,.53,1.09,.53,1.09,.4,1.14,.26,1.24,.26,1.23,.26,1.35,.13h1.35l2.78-.13v14.16l-2.83,.13h-6.01l-2.69-.13-2.48-.26-2.38-.26-1.14-.13-1.09-.26-1.03-.13-1.03-.26-.98-.26-.94-.26-.98-.26-.87-.4-.89-.4-.87-.4-.83-.4-.82-.4-.83-.4-1.55-.93-.71-.53-.78-.53-1.44-1.19-.68-.53-.73-.53-.73-.79-.66-.66-1.35-1.46-.62-.79-.62-.79-.57-.79-.57-.93-.52-.79-.52-.93-.93-1.98-.46-1.06-.41-1.06-.37-1.06-.36-1.19-.36-1.19-.32-1.19-.3-1.19-.26-1.32-.25-1.19-.21-1.46-.21-1.32-.15-1.46-.16-1.46-.16-1.46-.11-1.59-.04-1.46-.11-1.72-.05-1.59v-1.72l.05-5.43,.05,.13v-126.54h.2v-.13h22.18v46.2c.46,12.97,15.16,9,23,9.13v13.37h-23v55.99l.11,5.69v1.85l.05,1.85,.11,1.85,.04,.53,.05,.4Z"/><path class="c" d="M588.91,483.19l-1.12,2.12-1.05,2.12-.98,1.99-.93,1.98-.83,1.85-.82,1.85-.73,1.85-.67,1.72-.61,1.85-.53,1.72-.52,1.72-.41,1.59-.3,1.72-.32,1.59-.2,1.46-.16,1.59-.05,1.59v1.46l.05,1.46,.11,1.59,.2,1.46,.62,3.04,.46,1.46,.48,1.46,.52,1.32,.62,1.06,.56,.93,.68,.79,.67,.4,.73,.53,.77,.26,.78,.13h1.65l.93-.26,.94-.26,.93-.53,.98-.53,.98-.66,.99-.79,.93-.93,.93-.93,.93-1.06,.89-1.19,.82-1.19,.83-1.32,.73-1.32,.71-1.46,.62-1.46,.57-1.46,.46-1.59,.41-1.59,.32-1.59,.21-1.59,.09-1.72v-2.78l-.05-1.06-.04-1.19-.11-1.19-.11-1.32-.11-1.19-.16-1.19-.09-1.19-.16-1.19-.21-1.32-.15-1.19-.62-3.71-.26-1.32-.21-1.19-.25-1.32-.26-1.19-.25-1.32-.26-1.32-.3-1.19-.26-1.32-.3-1.19-.26-1.32-.61-2.51-.32-1.19-.62-2.52-.2-.66-1.35,2.38-1.39,2.51-2.59,4.63-1.19,2.12-1.14,2.25Zm17.59,44.87l-.94,1.72-.98,1.85-1.09,1.72-1.14,1.72-1.24,1.85-1.23,1.85-2.79,3.31-1.46,1.72-1.5,1.59-1.55,1.46-1.6,1.32-1.6,1.32-1.65,1.19-1.65,1.06-1.71,.93-1.71,.79-1.71,.53-1.71,.53-1.76,.13h-1.71l-1.71-.13-1.71-.53-1.6-.79-1.6-.93-1.5-1.32-1.44-1.59-1.4-1.85-1.28-2.12-.83-1.59-.78-1.72-.66-1.72-.62-1.59-.46-1.72-.48-1.85-.3-1.72-.3-1.72-.32-3.44-.05-1.85v-1.72l.05-1.72,.11-1.85,.21-1.59,.2-1.85,.32-1.72,.3-1.72,.41-1.72,.42-1.72,.46-1.72,.52-1.72,.52-1.59,.57-1.72,.62-1.59,.62-1.59,1.34-3.18,.68-1.59,.73-1.59,.77-1.46,.73-1.46,.67-1.32,.77-1.32,.94-1.46,.93-1.59,1.09-1.72,1.09-1.72,1.19-1.72,1.19-1.99,1.23-1.85,1.19-1.99,1.24-1.99,1.19-2.12,2.28-3.97,1.03-1.99,.93-1.98c5.07-11.25,5.32-16.55-7.08-16.41v-12.97h35.05l24.05,120.72h-24.62l-5.63-27.4-.52,1.19Z"/><path class="c" d="M674.23,447.58v106.55h-22.24v-107.35h-8.52v-13.24h42.81l4.34,.13,4.23,.93,3.88,1.19,3.47,1.72,3.1,1.99,2.79,2.38,2.38,2.65,2.06,2.91,1.76,3.31,1.46,3.44,1.12,3.71,.89,3.97,.68,4.1,.36,4.23c1.92,30.18-.98,29.65-6.1,70.15l7.4-.13v14.03h-30.97c5.43-35.87,8.17-48.58,7.39-69.89l-1.14-11.91-.52-3.84-.71-3.57-.99-3.31-1.12-2.91-1.4-2.65-1.65-2.38-1.91-1.99-2.18-1.59-2.42-1.32-2.79-.93-3.15-.4h-2.28Z"/><path class="c" d="M775.68,536.93c-26.99,.93-19.75-93.45-4.45-92.79,8.27,.4,14.43,9.93,16.8,22.9,3.47,18.93,2.95,69.36-12.35,69.89Zm12.31-96.89c-.83-25.15-1.51-37.46-1.97-62.61h40.17v14.16c-11.73-1.85-17.01,.4-15.87,12.44v56.65c-.67,29.78-3.83,47.78-12.51,70.55-5.64,14.16-13.45,24.09-21.97,23.82-4.71,.13-22.56,3.31-32.01-16.41-16.4-37.59-6.83-98.74,20.21-106.16,9.46,0,13.45-.4,23.95,7.55Z"/><path class="c" d="M845.94,483.19l-1.09,2.12-1.03,2.12-.98,1.99-.93,1.98-.89,1.85-.77,1.85-.73,1.85-.68,1.72-.62,1.85-.57,1.72-.46,1.72-.41,1.59-.36,1.72-.26,1.59-.2,1.46-.16,1.59-.11,1.59v1.46l.05,1.46,.16,1.59,.2,1.46,.26,1.45,.36,1.59,.41,1.46,.52,1.46,.53,1.32,.56,1.06,.62,.93,.67,.79,.68,.4,.73,.53,.71,.26,.78,.13h1.71l.93-.26,.93-.26,.94-.53,.98-.53,.93-.66,.98-.79,.99-.93,.93-.93,.93-1.06,.89-1.19,.82-1.19,.83-1.32,.71-1.32,.67-1.46,.62-1.46,.57-1.46,.46-1.59,.41-1.59,.32-1.59,.25-1.59,.11-1.72v-2.78l-.05-1.06-.09-1.19-.05-1.19-.11-1.32-.16-1.19-.11-1.19-.46-3.71-.82-4.9-.21-1.32-.52-2.52-.26-1.19-.25-1.32-.26-1.32-.25-1.19-.32-1.32-.25-1.19-.32-1.32-.61-2.51-.32-1.19-.62-2.52-.16-.66-1.39,2.38-1.35,2.51-1.34,2.25-1.24,2.38-1.24,2.12-1.14,2.25Zm17.59,44.87l-.89,1.72-.98,1.85-1.09,1.72-1.14,1.72-1.24,1.85-1.28,1.85-1.35,1.59-1.39,1.72-1.51,1.72-1.5,1.59-1.55,1.46-1.55,1.32-1.65,1.32-1.6,1.19-1.71,1.06-1.65,.93-1.71,.79-1.76,.53-1.71,.53-1.71,.13h-1.71l-1.71-.13-1.71-.53-1.65-.79-1.55-.93-1.55-1.32-1.44-1.59-1.35-1.85-1.3-2.12-.87-1.59-.78-1.72-.66-1.72-.57-1.59-.52-1.72-.42-1.85-.36-1.72-.26-1.72-.2-1.72-.21-3.57v-1.72l.21-3.57,.16-1.59,.25-1.85,.32-1.72,.3-1.72,.36-1.72,.46-1.72,.42-1.72,.52-1.72,1.71-4.9,.66-1.59,.62-1.59,.73-1.59,.67-1.59,.71-1.59,.73-1.46,.78-1.46,.68-1.32,.77-1.32,.89-1.46,.98-1.59,1.03-1.72,1.14-1.72,1.19-1.72,2.37-3.84,1.24-1.99,1.24-1.99,1.19-2.12,1.14-1.99,1.09-1.99,1.03-1.99,.98-1.98,.83-1.85,.77-1.85,.62-1.72c2.9-9.93-1.19-10.99-9.2-10.99l-.16-12.97h35.1l24,120.72h-24.57l-5.68-27.4-.52,1.19Z"/><path class="c" d="M899.09,448.51l-.57-15.35h37.49v25.28l.68-1.19,.87-1.59,.89-1.59,.93-1.59,.98-1.59,.98-1.59,2.08-3.04,2.28-3.04,1.18-1.46,1.24-1.32,1.35-1.32,1.34-1.32,1.46-1.06,1.5-1.06,1.55-1.06,1.6-.93,1.71-.66,1.81-.66,1.81-.53c6.14,0,12.3-.13,18.45-.26v41.83c3.31-11.12-7.7-17.47-22.81-17.87l-1.28,.13-1.3,.4-1.39,.66-1.4,.79-1.44,.93-1.46,1.19-1.44,1.46-1.39,1.59-1.4,1.59-1.34,1.85-1.24,2.12-1.24,2.12-1.09,2.38-1.03,2.51-.93,2.52-.78,2.78-.67,2.78-.52,2.91-.36,3.04-.21,3.04v61.95h-24.82l-.05-105.89-11.99,.13Z"/><polygon class="c" points="1003.38 514.7 1003.44 515.49 1003.65 517.21 1003.85 518.8 1004.47 521.84 1004.83 523.43 1005.2 524.75 1006.12 527.53 1006.64 528.73 1007.21 529.92 1008.45 532.17 1009.17 533.09 1009.9 534.02 1010.68 534.95 1011.5 535.74 1012.39 536.4 1013.26 537.06 1014.24 537.73 1015.23 538.26 1016.32 538.79 1017.4 539.18 1018.58 539.45 1019.77 539.71 1021.07 539.98 1022.37 540.11 1023.76 540.11 1026.55 539.98 1026.55 554.14 1023.65 554.27 1022.1 554.27 1020.61 554.27 1019.1 554.27 1016.32 554.14 1015.02 554.14 1013.72 554.01 1012.48 553.87 1010.11 553.61 1009.02 553.48 1006.85 553.08 1005.86 552.82 1004.83 552.55 1003.9 552.29 1002.97 552.02 1002.03 551.62 1001.16 551.23 1000.29 550.83 999.45 550.43 998.63 550.04 996.3 548.71 995.52 548.18 994.81 547.65 992.62 545.93 991.91 545.4 991.18 544.61 990.51 543.95 989.17 542.49 988.55 541.7 987.92 540.9 987.35 540.11 986.79 539.18 986.27 538.39 985.75 537.46 984.83 535.48 984.4 534.42 983.58 532.3 983.23 531.11 982.85 529.92 982.55 528.73 982.29 527.53 981.98 526.21 981.72 525.02 981.52 523.56 981.31 522.24 981.15 520.78 981 519.33 980.84 517.87 980.74 516.28 980.68 514.83 980.58 511.52 980.58 504.37 980.68 504.5 980.68 377.96 980.84 377.96 980.84 377.83 1003.08 377.83 1001.43 431.17 1025.87 431.7 1025.87 446.53 1003.08 446.53 1003.08 502.52 1003.12 508.21 1003.17 510.06 1003.23 511.91 1003.33 513.77 1003.38 514.3 1003.38 514.7"/><path class="c" d="M207.89,722.51c-14.38-44.08-1.19-104.83,17.38-168.24h-11.28v-12.44h47.41c-29.93,80.61-36.76,144.94-19.34,181.34l32.11-.13c-9.77-48.18-10.55-58.64,3.52-110.52l-12.36,.13,2.85-11.91,41.06-.13c-20.17,66.71-11.64,85.51-4.04,122.17h12.92l-.04,11.91c-94.88,0-125.5,7.15-159.37-9.4-43.22-21.18-32.77-76.9-4.29-157.38l-11.07,.13-.09-12.71h44.71c-30.6,79.82-43.84,162.15,19.91,167.18Z"/><path class="c" d="M697.81,618.2c-5.43-5.03-8.68,2.25-9.2,5.16l-15.35,88.42h28.54c-2.54-37.99-4.29-51.23-4.2-90.8l.21-2.78Zm-31.38,155.93l-13.96,2.38-10.18-64.59c10.23-.66,14.89-4.63,19.85-20.78,4.91-16.28,7.03-35.47,11.16-61.02,1.24-7.41-.15-17.87-15.87-16.55v-11.91l60.76-.13c.57,43.81,3.31,61.55,6.67,104.04,1.55,4.76,4.14,5.43,5.59,6.22l5.64,.13-12.88,65.26-13.91-2.65c4.96-39.71,8.13-49.77-1.14-49.77h-41.47c-6.87,0-8.27,12.18-.25,49.51v-.13Z"/><path class="c" d="M861.82,668.64c3.04,27,35.51,70.02,32.06,8.21-3.36-60.36-38.27-84.71-32.06-8.21Zm-.94,35.61c.73,21.05,1.24,29.78,2.02,50.83,1.28,10.72,6.16,8.21,9.25,8.21v10.19h-33.93l-.09-80.61c.66-29.78,3.92-47.78,12.92-70.55,5.8-14.03,17.17-23.83,22.75-23.83,9.82,.79,21.87,7.28,29.73,25.15,16.96,37.46,10.39,95.44-17.53,102.85-9.82,0-21.46-4.77-25.14-22.24Z"/><path class="c" d="M396.62,613.17l.05,110.79h-22.03l.16-110.92h-19.34v111.05h-24.3v-111.19l-8.38-.13-.05-11.65,85.83-.13c56.22,2.38,32.95,79.02,22.5,123.37h8.38c0,3.84,.04,7.54,.04,11.38h-32.52c11.07-40.37,31.95-125.88-10.34-122.57Z"/><path class="c" d="M495.64,646.27c-17.79,28.99-27.31,34.15-20.69,51.76,6.46,16.94,27.04-9.13,26.63-28.59-.05-3.04-.21-2.38-2.28-11.91l-3.67-11.25Zm15.77-44.61l25.75,122.97-24.14,.26-5.64-28.46c-5.63,9.79-8.37,11.91-12.92,18.13-9.16,14.82-27.31,19.85-35.88,.79-8.38-18.8-4.96-38.39,4.96-52.55,5.32-7.68,27.35-33.36,27.72-38.25,.98-12.18-5.8-10.32-15-10.19-.05,0,.05-8.6-.05-12.71h35.21Z"/><path class="c" d="M632.76,724.36l-33.71,.13,1.19-42.23c.16-11.52-2.17-18.53-5.17-22.11l-18.1-21.44c-.46,28.2-.41,51.23-.25,85.91h-23.11l2.12-105.1c.05-5.03-3.73-5.96-6.72-6.22l-5.53-.13,.05-11.52,34.69-.13c-.16,6.75-.11,7.55,.46,15.62,1.35,8.08,15.73,26.34,22.44,30.84,.32-16.02,0-30.18-.15-46.33l25.64,.13-1.55,99.54c.05,5.82-1.4,10.85,3.15,10.99l5.28,.26-.73,11.91v-.13Z"/><path class="c" d="M784.15,639.78c-17.78,28.99-29.88,37.72-22.12,56.39,6.87,16.41,27.76-11.52,27.35-30.97-.05-3.04,.16,0-1.87-9.53l-3.36-15.88Zm18.05-38.12l25.53,121.91-26.51,.13-6.94-35.74c-4.5,11.65-7.49,18-11.64,24.75-9.15,14.82-27.29,19.85-35.88,.79-8.38-18.79-4.96-38.39,4.96-52.68,5.33-7.55,27.56-32.16,27.72-37.06,.46-12.84-12.1-9.4-15.35-9.4-.05,0-.26-8.34-.36-12.57l38.47-.13Z"/><path class="c" d="M991.86,613.7l.05,110.79h-21.92l.04-110.92h-19.32l.04,111.06h-23.98l-.36-111.06-8.49-.26,.05-11.38,85.83-.4c56.2,2.38,32.95,79.02,22.45,123.37l8.47-.13-.05,11.52h-32.52c11.12-40.37,31.95-126.01-10.28-122.7v.13Z"/><path class="c" d="M1102.93,602.98c-9.68,0-21.42,10.85-25.08,28.06,.87-24.88,2.06-66.31,2.58-91.2h-36.11v14.17l11.24-.4,.05,82.59c.68,29.39,3.88,47.26,12.77,69.76,5.75,13.9,17.01,23.56,22.49,23.56,4.85-8.03,17.24-22.84,32.85-33.8,12.2-36.7,4.68-86.03-20.79-92.75Zm7.74,48.98c-3.31,59.7-37.12,87.5-30.6,8.08,1.76-21.32,7.29-40.77,19.91-40.77,8.12,0,11.48,18.93,10.69,32.69Z"/></svg>